<svg xmlns="http://www.w3.org/2000/svg" xmlns:xlink="http://www.w3.org/1999/xlink" width="500" zoomAndPan="magnify" viewBox="0 0 375 374.999991" height="500" preserveAspectRatio="xMidYMid meet" version="1.2"><defs><clipPath id="b4c05b0852"><path d="M 150.089844 140.140625 L 225 140.140625 L 225 234.640625 L 150.089844 234.640625 Z M 150.089844 140.140625 "/></clipPath></defs><g id="5e024919fb"><g clip-rule="nonzero" clip-path="url(#b4c05b0852)"><path style=" stroke:none;fill-rule:nonzero;fill:#ffffff;fill-opacity:1;" d="M 150.21875 141.039062 L 152.4375 141.039062 L 165.902344 164.757812 L 179.316406 141.039062 L 181.363281 141.039062 L 181.363281 179.429688 L 150.21875 179.429688 Z M 152.269531 177.441406 L 179.316406 177.441406 L 179.316406 145.175781 L 166.847656 167.019531 L 164.90625 167.019531 L 152.269531 144.84375 Z M 224.992188 179.484375 L 188.636719 179.484375 L 206.816406 140.269531 Z M 191.851562 177.441406 L 221.777344 177.441406 L 206.816406 145.121094 Z M 181.753906 234.640625 L 152.105469 234.640625 L 152.105469 196.25 L 167.121094 196.25 C 170.335938 196.25 172.960938 196.820312 174.992188 197.960938 C 176.988281 199.0625 178.539062 200.570312 179.648438 202.484375 C 180.753906 204.394531 181.308594 206.507812 181.308594 208.824219 C 181.308594 211.695312 180.421875 214.269531 178.648438 216.546875 C 176.875 218.789062 174.640625 220.28125 171.945312 221.015625 Z M 155.597656 198.292969 L 170.667969 219.25 C 173.144531 218.734375 175.195312 217.503906 176.820312 215.554688 C 178.445312 213.605469 179.257812 211.363281 179.257812 208.824219 C 179.257812 206.804688 178.761719 204.964844 177.761719 203.308594 C 176.765625 201.65625 175.363281 200.386719 173.550781 199.503906 C 171.925781 198.695312 169.800781 198.292969 167.179688 198.292969 Z M 154.15625 199.613281 L 154.15625 219.414062 L 168.398438 219.414062 Z M 154.15625 232.597656 L 177.875 232.597656 L 169.78125 221.402344 L 168.066406 221.457031 L 154.15625 221.457031 Z M 207.367188 212.246094 L 223.441406 234.640625 L 192.40625 234.640625 L 192.40625 196.25 L 223.441406 196.25 Z M 205.929688 213.679688 L 194.457031 225.097656 L 194.457031 232.597656 L 219.503906 232.597656 Z M 205.929688 213.679688 "/></g></g></svg>