<svg xmlns="http://www.w3.org/2000/svg" xmlns:xlink="http://www.w3.org/1999/xlink" width="500" zoomAndPan="magnify" viewBox="0 0 375 374.999991" height="500" preserveAspectRatio="xMidYMid meet" version="1.2"><defs><clipPath id="5953111508"><path d="M 121 98.398438 L 253 98.398438 L 253 272 L 121 272 Z M 121 98.398438 "/></clipPath></defs><g id="5f34e967ef"><g clip-rule="nonzero" clip-path="url(#5953111508)"><path style=" stroke:none;fill-rule:evenodd;fill:#ffffff;fill-opacity:1;" d="M 185.773438 83.558594 C 185.683594 83.667969 185.628906 83.898438 185.652344 84.074219 C 185.6875 84.320312 185.800781 84.402344 186.140625 84.433594 C 186.519531 84.472656 186.597656 84.425781 186.671875 84.125 C 186.828125 83.5 186.164062 83.085938 185.773438 83.558594 M 191.941406 100.21875 C 191.539062 100.398438 189.628906 102.578125 189.628906 102.859375 C 189.628906 102.953125 189.472656 103.171875 189.28125 103.351562 C 189.089844 103.53125 188.777344 104.023438 188.582031 104.445312 C 188.390625 104.867188 188.121094 105.335938 187.980469 105.488281 C 187.84375 105.640625 187.625 106.105469 187.492188 106.523438 C 187.363281 106.9375 187.101562 107.519531 186.914062 107.808594 C 186.726562 108.101562 186.453125 108.84375 186.308594 109.464844 C 186.160156 110.082031 185.917969 111.117188 185.765625 111.761719 C 185.347656 113.527344 185.1875 115.363281 185.289062 117.15625 C 185.355469 118.285156 185.335938 118.789062 185.226562 118.855469 C 185.140625 118.90625 184.421875 118.632812 183.628906 118.246094 C 181.914062 117.414062 181.046875 117.226562 179.285156 117.308594 C 178.082031 117.363281 177.851562 117.421875 176.539062 118.015625 C 174.394531 118.988281 173.332031 119.941406 172.285156 121.828125 L 171.632812 123 L 171.632812 125.410156 C 171.632812 127.578125 171.664062 127.890625 171.925781 128.457031 C 172.269531 129.195312 172.875 129.535156 173.46875 129.328125 C 173.90625 129.175781 174.460938 128.394531 174.460938 127.9375 C 174.460938 127.363281 174.988281 126.53125 175.597656 126.148438 C 176.734375 125.429688 177.902344 125.28125 179.378906 125.667969 C 181.152344 126.128906 181.445312 126.230469 181.785156 126.5 C 181.964844 126.636719 182.421875 126.910156 182.800781 127.105469 C 184.214844 127.828125 185.71875 129.6875 186.394531 131.550781 C 186.578125 132.058594 186.847656 132.667969 186.996094 132.90625 C 187.382812 133.535156 187.605469 135.804688 187.53125 138.300781 C 187.472656 140.226562 187.441406 140.4375 187.089844 141.136719 C 186.277344 142.761719 186.089844 143.058594 185.457031 143.726562 C 184.914062 144.300781 184.675781 144.445312 184.074219 144.570312 C 182.902344 144.8125 180.929688 144.425781 180.597656 143.886719 C 180.546875 143.808594 180.253906 143.617188 179.941406 143.457031 C 179.214844 143.085938 178.433594 142.390625 177.425781 141.21875 C 177.121094 140.863281 176.644531 140.332031 176.367188 140.03125 C 176.089844 139.730469 175.816406 139.347656 175.765625 139.179688 C 175.710938 139.007812 175.429688 138.574219 175.144531 138.210938 C 174.855469 137.847656 174.550781 137.332031 174.460938 137.0625 C 174.371094 136.796875 174.179688 136.515625 174.035156 136.4375 C 173.890625 136.355469 173.585938 135.890625 173.363281 135.402344 C 172.945312 134.472656 172.632812 134.226562 172.023438 134.34375 C 171.386719 134.464844 171.289062 134.820312 171.289062 137.015625 C 171.289062 138.867188 171.246094 139.214844 170.796875 141.085938 C 170.269531 143.265625 169.925781 143.96875 168.835938 145.113281 C 168.410156 145.5625 168.199219 145.679688 167.820312 145.679688 C 167.160156 145.679688 166.949219 145.464844 166.660156 144.507812 C 166.523438 144.054688 166.175781 143.226562 165.886719 142.675781 C 165.597656 142.121094 165.359375 141.570312 165.359375 141.453125 C 165.359375 141.332031 165.152344 140.949219 164.898438 140.597656 C 164.648438 140.246094 164.300781 139.664062 164.128906 139.304688 C 163.960938 138.941406 163.761719 138.648438 163.6875 138.648438 C 163.613281 138.648438 163.464844 138.433594 163.355469 138.171875 C 163.246094 137.90625 162.976562 137.488281 162.761719 137.238281 C 162.542969 136.992188 162.207031 136.53125 162.015625 136.222656 C 161.734375 135.773438 159.617188 133.488281 158.230469 132.136719 C 157.339844 131.273438 155.425781 129.765625 154.8125 129.449219 C 154.585938 129.328125 154.222656 129.085938 154.007812 128.90625 C 153.796875 128.730469 153.542969 128.582031 153.445312 128.582031 C 153.351562 128.582031 152.917969 128.335938 152.484375 128.03125 C 152.050781 127.726562 151.648438 127.480469 151.585938 127.480469 C 151.527344 127.480469 151.058594 127.257812 150.546875 126.984375 C 150.03125 126.714844 149.292969 126.398438 148.902344 126.285156 C 148.515625 126.171875 147.945312 125.933594 147.640625 125.757812 C 147.332031 125.578125 146.589844 125.335938 145.984375 125.210938 C 145.378906 125.085938 144.421875 124.828125 143.855469 124.632812 C 142.917969 124.3125 142.515625 124.269531 139.277344 124.136719 C 134.355469 123.941406 132.960938 124.144531 132.960938 125.058594 C 132.960938 125.605469 134.847656 127.203125 135.5 127.203125 C 135.613281 127.203125 135.925781 127.394531 136.191406 127.628906 C 136.460938 127.863281 136.984375 128.171875 137.359375 128.316406 C 137.734375 128.457031 138.1875 128.707031 138.363281 128.867188 C 138.539062 129.027344 138.875 129.292969 139.113281 129.457031 C 140.011719 130.074219 140.890625 130.738281 141.566406 131.316406 C 142.226562 131.882812 142.679688 132.273438 144.101562 133.511719 C 144.429688 133.796875 144.800781 134.140625 144.929688 134.277344 C 145.058594 134.414062 145.347656 134.707031 145.574219 134.933594 C 146.125 135.472656 146.085938 135.429688 146.875 136.375 C 147.253906 136.828125 147.757812 137.417969 147.992188 137.683594 C 148.714844 138.5 149.917969 140.054688 149.917969 140.167969 C 149.917969 140.226562 150.136719 140.535156 150.402344 140.855469 C 150.667969 141.171875 150.882812 141.507812 150.882812 141.597656 C 150.882812 141.691406 151.164062 142.160156 151.503906 142.648438 C 151.84375 143.132812 152.125 143.628906 152.125 143.757812 C 152.125 143.882812 152.277344 144.195312 152.460938 144.453125 C 153.042969 145.257812 155.121094 149.5625 155.421875 150.585938 C 155.578125 151.125 155.855469 151.839844 156.03125 152.175781 C 156.210938 152.511719 156.433594 153.125 156.53125 153.542969 C 156.625 153.957031 156.910156 154.949219 157.164062 155.746094 C 157.414062 156.542969 157.660156 157.472656 157.714844 157.8125 C 157.839844 158.640625 158.3125 160.03125 158.574219 160.328125 C 158.6875 160.457031 158.988281 160.605469 159.242188 160.652344 C 159.769531 160.75 160.605469 160.386719 161.292969 159.753906 C 161.519531 159.546875 162.054688 159.152344 162.476562 158.878906 C 162.898438 158.605469 163.324219 158.285156 163.421875 158.167969 C 163.523438 158.046875 163.679688 157.953125 163.773438 157.953125 C 163.867188 157.953125 164.109375 157.820312 164.3125 157.664062 C 164.511719 157.503906 165.105469 157.167969 165.625 156.914062 C 166.148438 156.660156 166.617188 156.378906 166.671875 156.292969 C 166.726562 156.210938 167.242188 155.921875 167.816406 155.660156 C 168.394531 155.398438 168.964844 155.097656 169.078125 154.992188 C 169.195312 154.890625 169.65625 154.675781 170.105469 154.519531 C 170.554688 154.363281 171.050781 154.113281 171.210938 153.964844 C 171.367188 153.816406 171.929688 153.589844 172.460938 153.460938 C 172.992188 153.335938 173.804688 153.027344 174.269531 152.777344 C 174.800781 152.492188 175.417969 152.285156 175.925781 152.226562 C 176.371094 152.175781 177.199219 151.925781 177.769531 151.671875 C 178.550781 151.328125 179.203125 151.164062 180.4375 151.003906 C 181.34375 150.886719 182.328125 150.671875 182.644531 150.523438 C 183.691406 150.035156 184.15625 149.976562 188.523438 149.8125 C 191.835938 149.683594 193.769531 149.683594 196.660156 149.800781 C 200.484375 149.960938 201.261719 150.066406 202.691406 150.632812 C 203.09375 150.789062 203.710938 150.917969 204.070312 150.921875 C 205.316406 150.921875 206.421875 151.179688 207.039062 151.617188 C 207.464844 151.917969 207.890625 152.070312 208.589844 152.167969 C 209.125 152.246094 210.011719 152.515625 210.585938 152.773438 C 211.152344 153.03125 211.984375 153.320312 212.433594 153.417969 C 212.882812 153.515625 213.410156 153.730469 213.605469 153.894531 C 214.015625 154.238281 214.914062 154.640625 215.273438 154.640625 C 215.40625 154.640625 215.597656 154.738281 215.695312 154.859375 C 215.910156 155.121094 217.109375 155.746094 217.394531 155.746094 C 217.503906 155.746094 217.785156 155.902344 218.015625 156.097656 C 218.242188 156.289062 218.820312 156.605469 219.296875 156.800781 C 219.773438 156.992188 220.347656 157.304688 220.578125 157.492188 C 221.1875 157.984375 222.742188 159.035156 223.082031 159.183594 C 223.246094 159.253906 223.585938 159.492188 223.839844 159.714844 C 224.453125 160.253906 225.703125 160.875 226.058594 160.820312 C 226.5625 160.746094 226.835938 160.160156 227.050781 158.710938 C 227.167969 157.910156 227.40625 156.984375 227.621094 156.503906 C 227.820312 156.046875 228.070312 155.160156 228.175781 154.53125 C 228.296875 153.777344 228.5 153.136719 228.769531 152.667969 C 228.992188 152.277344 229.25 151.550781 229.339844 151.058594 C 229.445312 150.496094 229.671875 149.902344 229.949219 149.472656 C 230.195312 149.09375 230.4375 148.554688 230.492188 148.28125 C 230.542969 148.003906 230.738281 147.570312 230.925781 147.316406 C 231.113281 147.0625 231.359375 146.636719 231.476562 146.371094 C 232.132812 144.882812 232.300781 144.554688 232.53125 144.347656 C 232.671875 144.222656 232.785156 144.019531 232.785156 143.898438 C 232.785156 143.777344 233.007812 143.371094 233.277344 142.992188 C 233.550781 142.613281 233.925781 142.003906 234.109375 141.640625 C 234.296875 141.277344 234.535156 140.945312 234.640625 140.90625 C 234.746094 140.867188 234.925781 140.59375 235.042969 140.304688 C 235.160156 140.011719 235.320312 139.734375 235.402344 139.683594 C 235.480469 139.632812 235.804688 139.242188 236.117188 138.808594 C 237.613281 136.765625 240.296875 133.941406 242.832031 131.75 C 243.621094 131.070312 244.386719 130.511719 244.53125 130.511719 C 244.695312 130.511719 244.84375 130.367188 244.933594 130.113281 C 245.035156 129.816406 245.1875 129.691406 245.519531 129.628906 C 245.777344 129.582031 246.171875 129.335938 246.441406 129.050781 C 246.703125 128.777344 247.246094 128.40625 247.652344 128.226562 C 248.054688 128.046875 248.574219 127.742188 248.800781 127.550781 C 249.027344 127.359375 249.351562 127.203125 249.527344 127.203125 C 250.082031 127.203125 252.085938 125.542969 252.085938 125.078125 C 252.085938 124.738281 251.597656 124.332031 251.066406 124.234375 C 250.800781 124.183594 248.828125 124.171875 246.679688 124.207031 C 243.128906 124.265625 242.695312 124.296875 241.816406 124.578125 C 241.285156 124.746094 240.292969 125.003906 239.609375 125.152344 C 238.925781 125.296875 238.058594 125.566406 237.679688 125.75 C 237.300781 125.933594 236.667969 126.183594 236.273438 126.308594 C 235.878906 126.429688 235.085938 126.777344 234.507812 127.074219 C 233.929688 127.375 233.378906 127.617188 233.28125 127.617188 C 233.183594 127.617188 232.984375 127.75 232.839844 127.910156 C 232.695312 128.070312 232.171875 128.414062 231.679688 128.671875 C 230.632812 129.222656 229.957031 129.671875 229.472656 130.128906 C 229.285156 130.308594 228.855469 130.640625 228.519531 130.863281 C 227.746094 131.378906 223.90625 135.1875 223.269531 136.074219 C 223.003906 136.4375 222.554688 137.015625 222.269531 137.355469 C 221.984375 137.695312 221.753906 138.039062 221.753906 138.121094 C 221.753906 138.199219 221.535156 138.5625 221.269531 138.925781 C 221.003906 139.289062 220.664062 139.863281 220.511719 140.203125 C 220.363281 140.539062 220.152344 140.890625 220.046875 140.976562 C 219.941406 141.066406 219.710938 141.523438 219.535156 141.996094 C 219.363281 142.46875 219.078125 143.070312 218.90625 143.335938 C 218.734375 143.601562 218.523438 144.128906 218.433594 144.507812 C 218.164062 145.664062 217.925781 145.925781 217.289062 145.765625 C 216.820312 145.648438 215.917969 144.835938 215.53125 144.183594 C 215.335938 143.851562 215.128906 143.523438 214.921875 143.199219 C 214.332031 142.285156 213.824219 138.898438 213.953125 136.707031 C 214.054688 134.933594 213.9375 134.425781 213.386719 134.285156 C 212.703125 134.113281 211.742188 134.855469 211.480469 135.753906 C 211.425781 135.941406 211.210938 136.285156 211 136.511719 C 210.789062 136.738281 210.476562 137.203125 210.304688 137.546875 C 210.136719 137.886719 209.84375 138.351562 209.660156 138.578125 C 209.4375 138.855469 209.226562 139.140625 209.023438 139.433594 C 207.785156 141.242188 206.035156 143.054688 205.039062 143.558594 C 204.675781 143.742188 204.378906 143.949219 204.378906 144.015625 C 204.378906 144.21875 203.273438 144.554688 202.3125 144.644531 C 201.027344 144.761719 200.308594 144.507812 199.453125 143.636719 C 198.972656 143.144531 198.667969 142.671875 198.445312 142.066406 C 198.269531 141.589844 198.019531 141.058594 197.886719 140.886719 C 197.488281 140.363281 197.308594 138.871094 197.375 136.707031 C 197.433594 134.921875 197.476562 134.628906 197.820312 133.824219 C 198.03125 133.328125 198.328125 132.492188 198.480469 131.960938 C 198.632812 131.429688 198.851562 130.890625 198.964844 130.757812 C 199.082031 130.628906 199.371094 130.152344 199.605469 129.699219 C 200.078125 128.800781 201.292969 127.621094 202.410156 126.980469 C 202.773438 126.773438 203.175781 126.515625 203.304688 126.410156 C 203.429688 126.300781 204.34375 126.03125 205.332031 125.8125 C 207.019531 125.4375 207.179688 125.425781 207.925781 125.597656 C 209.246094 125.90625 209.84375 126.289062 210.238281 127.0625 C 210.429688 127.4375 210.585938 127.832031 210.585938 127.9375 C 210.585938 128.042969 210.808594 128.421875 211.078125 128.777344 C 211.542969 129.382812 211.609375 129.421875 212.132812 129.382812 C 212.925781 129.324219 213.171875 128.929688 213.414062 127.335938 C 213.8125 124.722656 213.558594 122.535156 212.722656 121.414062 C 211.183594 119.339844 210.609375 118.871094 208.386719 117.871094 L 207.222656 117.347656 L 205.285156 117.347656 C 203.464844 117.347656 203.300781 117.367188 202.589844 117.714844 C 202.171875 117.914062 201.613281 118.171875 201.347656 118.28125 C 201.082031 118.390625 200.691406 118.644531 200.476562 118.84375 C 200.058594 119.238281 199.753906 119.308594 199.648438 119.035156 C 199.613281 118.941406 199.617188 118.054688 199.652344 117.070312 C 199.753906 114.515625 199.515625 111.917969 199.078125 110.8125 C 198.890625 110.332031 198.664062 109.554688 198.582031 109.089844 C 198.386719 108.027344 198.234375 107.621094 197.816406 107.050781 C 197.632812 106.800781 197.417969 106.371094 197.34375 106.089844 C 197.269531 105.8125 197 105.28125 196.746094 104.910156 C 196.492188 104.542969 196.238281 104.085938 196.179688 103.898438 C 196.121094 103.710938 195.964844 103.433594 195.828125 103.28125 C 195.691406 103.128906 195.371094 102.71875 195.121094 102.367188 C 193.476562 100.082031 192.992188 99.753906 191.941406 100.21875 M 191.117188 154.164062 C 191.0625 154.214844 190.382812 154.3125 189.601562 154.375 C 185.640625 154.695312 182.75 155.109375 181.402344 155.550781 C 180.835938 155.734375 179.785156 155.972656 179.066406 156.082031 C 178.316406 156.195312 177.550781 156.398438 177.28125 156.558594 C 177.023438 156.710938 176.394531 156.964844 175.882812 157.121094 C 173.890625 157.738281 170 159.46875 169.222656 160.085938 C 169.109375 160.175781 168.609375 160.46875 168.117188 160.738281 C 167.625 161.003906 166.910156 161.394531 166.53125 161.601562 C 166.152344 161.804688 165.6875 162.113281 165.5 162.28125 C 165.308594 162.449219 165.023438 162.675781 164.859375 162.785156 C 163.042969 164.015625 162.128906 164.71875 161.222656 165.578125 C 161.035156 165.757812 160.722656 165.984375 160.535156 166.082031 C 159.878906 166.421875 155.703125 170.558594 155.355469 171.214844 C 155.25 171.417969 155.046875 171.664062 154.90625 171.765625 C 154.765625 171.863281 154.535156 172.132812 154.394531 172.359375 C 154.253906 172.585938 153.945312 173 153.714844 173.277344 C 152.742188 174.445312 151.519531 176.183594 151.21875 176.824219 C 151.101562 177.082031 150.757812 177.679688 150.460938 178.148438 C 150.160156 178.621094 149.917969 179.070312 149.917969 179.148438 C 149.917969 179.226562 149.691406 179.621094 149.414062 180.027344 C 149.136719 180.429688 148.824219 181.039062 148.722656 181.382812 C 148.617188 181.726562 148.375 182.25 148.179688 182.542969 C 147.984375 182.835938 147.699219 183.457031 147.546875 183.921875 C 147.394531 184.386719 147.125 185.015625 146.953125 185.320312 C 146.777344 185.625 146.554688 186.242188 146.457031 186.699219 C 146.363281 187.152344 146.105469 187.921875 145.890625 188.410156 C 145.675781 188.894531 145.402344 189.855469 145.28125 190.546875 C 145.164062 191.234375 144.914062 192.390625 144.730469 193.109375 C 144.464844 194.140625 144.320312 195.398438 144.0625 198.960938 C 143.878906 201.460938 143.753906 203.546875 143.785156 203.597656 C 143.816406 203.648438 143.910156 204.828125 143.992188 206.222656 C 144.160156 209.074219 144.433594 211.285156 144.761719 212.414062 C 144.886719 212.832031 145.09375 213.796875 145.230469 214.5625 C 145.371094 215.355469 145.632812 216.261719 145.839844 216.667969 C 146.039062 217.058594 146.296875 217.890625 146.414062 218.515625 C 146.535156 219.15625 146.796875 219.953125 147.011719 220.339844 C 147.222656 220.722656 147.472656 221.359375 147.570312 221.761719 C 147.664062 222.164062 147.890625 222.667969 148.066406 222.878906 C 148.242188 223.089844 148.519531 223.613281 148.683594 224.042969 C 148.84375 224.476562 149.128906 225.011719 149.320312 225.238281 C 149.511719 225.46875 149.757812 225.988281 149.863281 226.402344 C 150.039062 227.070312 150.035156 227.214844 149.832031 227.746094 C 149.703125 228.070312 149.460938 228.492188 149.289062 228.683594 C 149.117188 228.871094 148.878906 229.277344 148.753906 229.578125 C 148.628906 229.882812 148.335938 230.367188 148.105469 230.65625 C 147.875 230.945312 147.621094 231.410156 147.546875 231.683594 C 147.46875 231.960938 147.257812 232.40625 147.074219 232.675781 C 146.890625 232.945312 146.589844 233.667969 146.402344 234.285156 C 146.214844 234.898438 145.976562 235.472656 145.875 235.558594 C 145.773438 235.644531 145.582031 236.101562 145.449219 236.574219 C 145.316406 237.050781 145 237.871094 144.746094 238.402344 C 144.492188 238.933594 144.175781 239.757812 144.042969 240.230469 C 143.914062 240.707031 143.722656 241.164062 143.621094 241.25 C 143.519531 241.335938 143.339844 241.753906 143.21875 242.179688 C 142.898438 243.347656 142.746094 243.683594 142.496094 243.789062 C 142.078125 243.96875 139.117188 244.023438 138.527344 243.863281 C 138.214844 243.78125 137.71875 243.546875 137.425781 243.347656 C 137.128906 243.148438 136.6875 242.925781 136.441406 242.859375 C 136.160156 242.78125 135.914062 242.585938 135.785156 242.335938 C 135.671875 242.113281 135.398438 241.761719 135.179688 241.546875 C 134.867188 241.246094 134.746094 240.957031 134.628906 240.253906 C 134.328125 238.453125 134.539062 236.074219 135.058594 235.46875 C 135.167969 235.339844 135.453125 234.890625 135.6875 234.472656 C 136.238281 233.496094 137.859375 232.058594 138.648438 231.84375 C 138.964844 231.757812 139.570312 231.515625 139.988281 231.304688 C 140.40625 231.097656 140.941406 230.882812 141.179688 230.832031 C 141.648438 230.730469 142.195312 230.289062 142.195312 230.015625 C 142.195312 229.191406 140.742188 229.042969 139.617188 229.757812 C 139.195312 230.023438 138.683594 230.207031 138.199219 230.265625 C 137.679688 230.328125 137.222656 230.503906 136.75 230.816406 C 136.371094 231.066406 135.90625 231.320312 135.714844 231.375 C 135.058594 231.570312 133.167969 233.304688 132.449219 234.378906 C 131.523438 235.753906 131.519531 235.761719 131.515625 237.851562 C 131.511719 239.691406 131.53125 239.820312 131.894531 240.539062 C 132.535156 241.820312 132.859375 242.261719 133.648438 242.925781 C 134.066406 243.277344 134.636719 243.757812 134.917969 243.996094 C 135.203125 244.230469 135.714844 244.511719 136.0625 244.617188 C 136.410156 244.722656 136.855469 244.933594 137.050781 245.085938 C 137.496094 245.4375 138.128906 245.609375 139.414062 245.726562 C 140.054688 245.789062 140.535156 245.910156 140.722656 246.0625 C 141.003906 246.289062 141.007812 246.347656 140.855469 247.085938 C 140.753906 247.566406 140.476562 248.1875 140.132812 248.699219 C 139.828125 249.160156 139.578125 249.636719 139.578125 249.761719 C 139.578125 249.882812 139.4375 250.195312 139.265625 250.453125 C 139.097656 250.707031 138.738281 251.296875 138.472656 251.757812 C 137.871094 252.800781 137.660156 252.859375 135.304688 252.652344 C 132.089844 252.371094 128.292969 252.765625 126.464844 253.566406 C 125.859375 253.835938 125.277344 254.054688 125.171875 254.054688 C 125.066406 254.054688 124.679688 254.300781 124.316406 254.597656 C 123.949219 254.898438 123.453125 255.308594 123.207031 255.507812 C 122.960938 255.703125 122.46875 256.28125 122.109375 256.789062 C 121.5 257.648438 121.457031 257.773438 121.402344 258.730469 C 121.3125 260.339844 121.523438 261.023438 122.378906 261.863281 C 122.777344 262.25 123.347656 262.703125 123.652344 262.867188 C 123.957031 263.03125 124.421875 263.300781 124.6875 263.46875 C 125.121094 263.742188 125.347656 263.773438 127.03125 263.773438 C 128.785156 263.773438 128.9375 263.75 129.671875 263.390625 C 130.097656 263.179688 130.761719 262.914062 131.144531 262.800781 C 131.527344 262.6875 132.035156 262.433594 132.269531 262.234375 C 132.503906 262.039062 132.9375 261.746094 133.230469 261.585938 C 134.644531 260.8125 137.246094 258.242188 138.230469 256.648438 C 138.4375 256.3125 138.558594 256.257812 139.101562 256.257812 C 139.449219 256.257812 140.023438 256.378906 140.378906 256.527344 C 141.195312 256.867188 141.90625 257.042969 142.957031 257.160156 C 143.410156 257.210938 144.171875 257.4375 144.644531 257.660156 C 145.121094 257.882812 145.898438 258.148438 146.378906 258.25 C 146.859375 258.347656 147.507812 258.597656 147.8125 258.800781 C 148.121094 259.007812 148.664062 259.261719 149.015625 259.367188 C 149.367188 259.472656 149.910156 259.773438 150.21875 260.039062 C 150.527344 260.304688 150.953125 260.558594 151.171875 260.605469 C 151.386719 260.652344 151.710938 260.867188 151.894531 261.082031 C 152.074219 261.292969 152.421875 261.574219 152.664062 261.699219 C 152.917969 261.832031 153.191406 262.125 153.300781 262.378906 C 153.402344 262.628906 153.59375 262.917969 153.722656 263.027344 C 154.109375 263.34375 154.429688 264.238281 154.671875 265.6875 C 154.90625 267.082031 154.886719 267.492188 154.519531 269.082031 C 154.273438 270.132812 154.398438 270.648438 154.960938 270.90625 C 155.261719 271.042969 155.460938 271.019531 156.171875 270.765625 C 156.636719 270.597656 157.101562 270.460938 157.203125 270.460938 C 157.300781 270.460938 157.753906 270.746094 158.203125 271.09375 C 159.234375 271.882812 159.570312 271.976562 161.359375 271.976562 C 162.980469 271.976562 163.714844 271.824219 164.328125 271.363281 C 164.554688 271.191406 165.113281 270.945312 165.566406 270.8125 C 166.023438 270.683594 166.519531 270.464844 166.671875 270.328125 C 166.820312 270.191406 167.164062 269.96875 167.429688 269.835938 C 168.867188 269.105469 172.878906 264.96875 173.433594 263.636719 C 173.539062 263.390625 173.792969 262.988281 173.996094 262.742188 C 174.203125 262.5 174.453125 261.988281 174.550781 261.605469 C 174.804688 260.621094 175.6875 259.667969 176.609375 259.378906 C 177.167969 259.203125 177.550781 258.921875 178.496094 257.984375 C 179.921875 256.578125 180.117188 256.535156 180.804688 257.460938 C 181.09375 257.855469 181.667969 258.347656 182.25 258.710938 L 183.214844 259.308594 L 184.757812 259.265625 C 186.121094 259.226562 186.34375 259.1875 186.6875 258.910156 C 186.902344 258.734375 187.390625 258.449219 187.773438 258.269531 C 188.542969 257.90625 190.273438 256.105469 190.578125 255.34375 C 190.675781 255.101562 190.902344 254.765625 191.089844 254.59375 C 191.273438 254.417969 191.515625 253.972656 191.625 253.605469 C 191.734375 253.234375 191.976562 252.75 192.164062 252.527344 C 192.351562 252.308594 192.582031 251.769531 192.675781 251.332031 C 192.769531 250.894531 193.027344 250.273438 193.246094 249.949219 C 193.464844 249.625 193.734375 249.007812 193.847656 248.578125 C 194.085938 247.664062 194.183594 247.523438 194.742188 247.292969 C 195.351562 247.039062 196.175781 247.3125 196.460938 247.863281 C 196.707031 248.339844 196.625 248.96875 196.285156 249.253906 C 196.164062 249.351562 195.859375 249.859375 195.609375 250.378906 C 195.359375 250.902344 195.0625 251.429688 194.953125 251.554688 C 194.839844 251.679688 194.457031 252.609375 194.101562 253.617188 C 193.351562 255.753906 193.347656 256.050781 194.078125 257.457031 C 194.734375 258.726562 195.425781 259.226562 196.523438 259.21875 C 197.25 259.214844 197.378906 259.164062 197.96875 258.667969 C 199.203125 257.617188 200.402344 256.324219 200.652344 255.769531 C 200.789062 255.460938 201.0625 255.105469 201.257812 254.976562 C 201.503906 254.8125 201.683594 254.496094 201.839844 253.949219 C 201.964844 253.511719 202.238281 252.972656 202.445312 252.742188 C 202.914062 252.238281 203.015625 251.84375 202.847656 251.238281 C 202.683594 250.644531 202.40625 250.414062 201.976562 250.523438 C 201.714844 250.589844 201.570312 250.792969 201.339844 251.425781 C 201.175781 251.875 200.894531 252.378906 200.710938 252.550781 C 200.527344 252.722656 200.3125 253.113281 200.230469 253.421875 C 200.144531 253.726562 199.894531 254.1875 199.671875 254.441406 C 199.449219 254.695312 199.171875 255.144531 199.050781 255.441406 C 198.824219 256.007812 198.027344 256.8125 197.691406 256.8125 C 196.933594 256.8125 197.140625 254.253906 198.003906 252.949219 C 198.128906 252.761719 198.371094 252.210938 198.542969 251.726562 C 198.710938 251.242188 198.976562 250.710938 199.132812 250.546875 C 199.285156 250.382812 199.539062 249.878906 199.695312 249.429688 C 199.847656 248.980469 200.121094 248.394531 200.300781 248.125 C 200.699219 247.535156 200.835938 246.699219 200.648438 246.019531 C 200.421875 245.203125 200.136719 245.089844 198.277344 245.089844 C 196.898438 245.089844 196.636719 245.054688 196.5625 244.867188 C 196.515625 244.742188 196.535156 244.5625 196.601562 244.472656 C 197.253906 243.59375 197.28125 243.515625 197.28125 242.410156 C 197.28125 240.929688 197.171875 240.613281 196.496094 240.125 C 195.820312 239.632812 195.277344 239.601562 194.824219 240.023438 C 194.363281 240.453125 193.660156 242.445312 193.339844 244.226562 C 193.167969 245.1875 192.929688 245.996094 192.660156 246.523438 C 192.433594 246.96875 192.246094 247.527344 192.246094 247.765625 C 192.246094 248.398438 191.996094 249.1875 191.769531 249.277344 C 191.519531 249.371094 191.074219 250.242188 190.941406 250.882812 C 190.886719 251.148438 190.667969 251.550781 190.453125 251.777344 C 190.242188 252.003906 189.964844 252.503906 189.839844 252.882812 C 189.714844 253.261719 189.433594 253.757812 189.21875 253.984375 C 189.007812 254.210938 188.792969 254.523438 188.746094 254.675781 C 188.703125 254.828125 188.386719 255.222656 188.042969 255.554688 C 187.703125 255.882812 187.421875 256.203125 187.421875 256.261719 C 187.421875 256.320312 187.1875 256.460938 186.90625 256.578125 C 186.621094 256.691406 186.28125 256.914062 186.152344 257.066406 C 185.867188 257.414062 185.144531 257.558594 184.515625 257.402344 C 184.144531 257.308594 183.980469 257.152344 183.738281 256.667969 C 183.359375 255.898438 183.328125 254.441406 183.671875 253.433594 C 183.890625 252.789062 183.953125 252.726562 184.59375 252.511719 C 184.972656 252.386719 185.433594 252.277344 185.617188 252.273438 C 185.796875 252.265625 186.324219 252.050781 186.789062 251.792969 C 187.25 251.539062 187.785156 251.28125 187.972656 251.222656 C 188.421875 251.089844 190.066406 249.628906 190.59375 248.902344 C 191.375 247.816406 191.691406 247.015625 191.695312 246.121094 C 191.695312 244.570312 190.96875 243.871094 189.234375 243.746094 C 187.847656 243.644531 186.910156 243.894531 185.738281 244.679688 C 184.253906 245.664062 182.40625 247.6875 181.699219 249.089844 C 181.492188 249.507812 181.210938 250.003906 181.074219 250.195312 C 180.941406 250.382812 180.757812 250.808594 180.667969 251.140625 C 180.378906 252.21875 179.277344 254.355469 178.523438 255.300781 C 177.703125 256.328125 176.496094 257.292969 176.179688 257.171875 C 176.023438 257.113281 175.976562 256.839844 175.976562 255.996094 C 175.976562 254.375 175.773438 253.589844 175.207031 253.058594 C 174.644531 252.527344 174.613281 252.148438 175.09375 251.699219 C 175.289062 251.515625 175.546875 251.179688 175.660156 250.949219 C 175.777344 250.722656 176.054688 250.34375 176.277344 250.109375 C 176.5625 249.804688 176.765625 249.363281 176.960938 248.59375 C 177.476562 246.578125 177.222656 245.429688 176.074219 244.519531 L 175.371094 243.964844 L 174.054688 244.015625 C 172.761719 244.066406 172.71875 244.082031 171.726562 244.707031 C 170.640625 245.394531 169.640625 246.363281 169.207031 247.148438 C 169.054688 247.421875 168.78125 247.851562 168.59375 248.109375 C 168.410156 248.367188 168.257812 248.722656 168.257812 248.902344 C 168.257812 249.082031 168.039062 249.46875 167.773438 249.761719 C 167.507812 250.054688 167.199219 250.558594 167.085938 250.878906 C 166.972656 251.203125 166.699219 251.667969 166.480469 251.917969 C 166.261719 252.167969 166.007812 252.683594 165.914062 253.078125 C 165.800781 253.542969 165.632812 253.863281 165.425781 254 C 165.25 254.113281 165.011719 254.4375 164.890625 254.714844 C 164.535156 255.550781 163.554688 256.53125 162.976562 256.625 C 162.519531 256.699219 162.472656 256.675781 162.382812 256.328125 C 162.316406 256.066406 162.421875 255.554688 162.722656 254.667969 C 162.960938 253.964844 163.15625 253.300781 163.15625 253.195312 C 163.15625 253.089844 163.402344 252.589844 163.707031 252.085938 C 164.007812 251.585938 164.257812 251.085938 164.257812 250.980469 C 164.257812 250.875 164.515625 250.390625 164.832031 249.902344 C 165.515625 248.851562 165.671875 247.96875 165.289062 247.378906 C 165.089844 247.078125 165.074219 246.945312 165.203125 246.664062 C 165.53125 245.945312 165.316406 245.207031 164.582031 244.515625 C 163.90625 243.882812 162.132812 243.605469 160.273438 243.839844 C 159.300781 243.960938 158.949219 244.082031 158.070312 244.59375 C 157.492188 244.929688 156.804688 245.382812 156.546875 245.597656 C 155.941406 246.097656 154.476562 247.613281 154.472656 247.742188 C 154.46875 247.792969 154.285156 248.046875 154.058594 248.304688 C 153.835938 248.558594 153.484375 249.105469 153.277344 249.515625 C 153.074219 249.925781 152.792969 250.417969 152.65625 250.605469 C 152.40625 250.957031 151.632812 253.570312 151.417969 254.8125 C 151.273438 255.628906 151.339844 256.003906 151.867188 257.332031 C 152.082031 257.882812 152.261719 258.363281 152.261719 258.398438 C 152.261719 258.597656 151.707031 258.414062 151.292969 258.070312 C 151.03125 257.855469 150.589844 257.605469 150.316406 257.515625 C 150.042969 257.425781 149.675781 257.203125 149.503906 257.015625 C 149.328125 256.828125 148.835938 256.546875 148.414062 256.390625 C 147.988281 256.234375 147.425781 255.957031 147.160156 255.773438 C 146.894531 255.59375 146.328125 255.355469 145.898438 255.242188 C 145.472656 255.132812 144.691406 254.851562 144.164062 254.621094 C 143.640625 254.390625 142.933594 254.160156 142.601562 254.105469 C 142.265625 254.054688 141.726562 253.898438 141.402344 253.761719 C 140.945312 253.566406 140.816406 253.4375 140.816406 253.179688 C 140.816406 252.800781 141.824219 250.582031 142.101562 250.351562 C 142.203125 250.265625 142.40625 249.839844 142.546875 249.402344 C 142.6875 248.964844 142.953125 248.402344 143.132812 248.152344 C 143.316406 247.898438 143.570312 247.394531 143.699219 247.027344 C 144.023438 246.101562 144.140625 245.996094 145.125 245.726562 C 145.601562 245.59375 146.359375 245.3125 146.816406 245.09375 C 147.269531 244.878906 147.960938 244.632812 148.351562 244.542969 C 148.804688 244.441406 149.195312 244.242188 149.4375 243.988281 C 149.664062 243.75 150.023438 243.558594 150.339844 243.503906 C 150.664062 243.449219 151.101562 243.214844 151.460938 242.898438 C 151.789062 242.617188 152.253906 242.304688 152.492188 242.207031 C 152.734375 242.113281 152.964844 241.949219 153.003906 241.84375 C 153.042969 241.742188 153.320312 241.5 153.621094 241.3125 C 153.921875 241.121094 154.964844 240.1875 155.933594 239.238281 C 157.046875 238.148438 157.804688 237.507812 157.980469 237.511719 C 158.335938 237.519531 158.746094 237.75 159.246094 238.226562 C 160.507812 239.429688 160.808594 239.695312 161.460938 240.167969 C 162.0625 240.609375 162.222656 240.671875 162.460938 240.542969 C 163.09375 240.203125 162.644531 238.8125 161.699219 238.191406 C 161.175781 237.847656 159.789062 236.242188 159.578125 235.738281 C 159.359375 235.207031 159.5625 234.316406 160.066406 233.570312 C 160.59375 232.792969 160.667969 232.601562 160.945312 231.273438 C 161.09375 230.570312 161.3125 229.6875 161.425781 229.316406 C 162.027344 227.382812 161.441406 225.195312 160.039062 224.148438 C 158.894531 223.289062 158.785156 223.253906 157.292969 223.246094 C 155.933594 223.238281 155.898438 223.246094 154.703125 223.84375 C 153.683594 224.351562 153.441406 224.425781 153.171875 224.300781 C 152.699219 224.085938 152.132812 222.972656 151.914062 221.820312 C 151.808594 221.269531 151.566406 220.460938 151.378906 220.027344 C 150.921875 218.980469 150.789062 218.410156 150.609375 216.6875 C 150.523438 215.890625 150.390625 215.023438 150.316406 214.757812 C 150.238281 214.492188 150.121094 213.839844 150.054688 213.308594 C 149.992188 212.777344 149.871094 211.972656 149.792969 211.515625 C 149.710938 211.0625 149.648438 209.914062 149.652344 208.964844 C 149.65625 207.285156 149.707031 206.886719 150.308594 203.589844 C 150.46875 202.71875 150.652344 201.375 150.71875 200.601562 C 150.820312 199.449219 150.917969 199.058594 151.269531 198.378906 C 151.507812 197.925781 151.761719 197.164062 151.839844 196.683594 C 151.917969 196.207031 152.191406 195.378906 152.453125 194.84375 C 152.714844 194.308594 152.972656 193.652344 153.023438 193.386719 C 153.125 192.886719 154.214844 190.574219 154.660156 189.90625 C 154.796875 189.699219 155.042969 189.203125 155.207031 188.804688 C 155.371094 188.40625 155.613281 187.921875 155.75 187.734375 C 156.296875 186.96875 157.171875 185.601562 157.433594 185.105469 C 157.585938 184.816406 157.84375 184.4375 158.011719 184.261719 C 158.175781 184.085938 158.453125 183.742188 158.628906 183.5 C 160.238281 181.285156 162.875 178.515625 165.085938 176.714844 C 165.652344 176.253906 166.335938 175.683594 166.601562 175.453125 C 167.214844 174.914062 167.882812 174.460938 168.683594 174.027344 C 169.035156 173.839844 169.523438 173.511719 169.773438 173.296875 C 170.222656 172.914062 170.804688 172.578125 172.34375 171.828125 C 173.15625 171.429688 173.453125 171.28125 174.597656 170.683594 C 174.941406 170.507812 175.300781 170.359375 175.402344 170.359375 C 175.503906 170.359375 176 170.152344 176.503906 169.898438 C 177.011719 169.644531 177.765625 169.363281 178.183594 169.269531 C 178.601562 169.175781 179.3125 168.921875 179.769531 168.707031 C 180.222656 168.492188 181.0625 168.246094 181.628906 168.160156 C 182.199219 168.074219 183.5625 167.78125 184.664062 167.503906 L 186.664062 167.003906 L 191.902344 166.996094 C 197.257812 166.984375 199.136719 167.109375 200.160156 167.535156 C 200.761719 167.789062 202.195312 168.09375 203.414062 168.226562 C 203.941406 168.285156 204.625 168.480469 205.070312 168.699219 C 205.488281 168.90625 206.226562 169.160156 206.710938 169.257812 C 207.199219 169.359375 207.941406 169.648438 208.359375 169.902344 C 208.777344 170.152344 209.226562 170.359375 209.355469 170.359375 C 209.484375 170.359375 210.136719 170.640625 210.8125 170.980469 C 211.484375 171.320312 212.078125 171.601562 212.136719 171.601562 C 212.191406 171.601562 212.6875 171.878906 213.234375 172.222656 C 213.78125 172.5625 214.292969 172.84375 214.367188 172.84375 C 214.4375 172.84375 214.65625 172.992188 214.851562 173.179688 C 215.046875 173.363281 215.59375 173.707031 216.066406 173.941406 C 216.539062 174.175781 216.925781 174.425781 216.925781 174.496094 C 216.925781 174.570312 217.128906 174.730469 217.375 174.855469 C 217.828125 175.085938 218.132812 175.328125 219.910156 176.878906 C 222.070312 178.761719 223.507812 180.105469 223.859375 180.5625 C 224.0625 180.828125 224.636719 181.511719 225.132812 182.082031 C 225.628906 182.648438 226.144531 183.292969 226.273438 183.515625 C 226.402344 183.734375 226.679688 184.113281 226.890625 184.359375 C 227.097656 184.605469 227.269531 184.871094 227.269531 184.949219 C 227.269531 185.03125 227.578125 185.480469 227.957031 185.953125 C 228.335938 186.425781 228.648438 186.890625 228.648438 186.988281 C 228.648438 187.082031 228.804688 187.347656 228.996094 187.574219 C 229.1875 187.804688 229.527344 188.394531 229.75 188.886719 C 229.976562 189.378906 230.21875 189.816406 230.289062 189.863281 C 230.363281 189.90625 230.617188 190.445312 230.851562 191.0625 C 231.089844 191.675781 231.402344 192.339844 231.546875 192.539062 C 231.6875 192.742188 231.9375 193.398438 232.097656 194.007812 C 232.257812 194.613281 232.5 195.304688 232.640625 195.539062 C 232.777344 195.777344 233.027344 196.582031 233.195312 197.332031 C 233.359375 198.082031 233.648438 199.160156 233.839844 199.730469 C 234.214844 200.867188 234.390625 202.441406 234.179688 202.753906 C 234.097656 202.875 233.789062 202.960938 233.378906 202.972656 C 232.839844 202.984375 232.574219 203.089844 231.972656 203.53125 C 231.5625 203.828125 231.128906 204.191406 231.007812 204.335938 C 230.882812 204.480469 230.605469 204.789062 230.390625 205.023438 C 230.175781 205.257812 229.851562 205.734375 229.675781 206.078125 C 229.5 206.425781 229.261719 206.789062 229.144531 206.886719 C 229.027344 206.980469 228.800781 207.414062 228.640625 207.839844 C 228.480469 208.269531 228.195312 208.824219 228.007812 209.070312 C 227.820312 209.316406 227.578125 209.820312 227.46875 210.1875 C 227.359375 210.554688 227.105469 211.097656 226.90625 211.394531 C 226.703125 211.6875 226.429688 212.3125 226.296875 212.78125 C 226.164062 213.246094 225.925781 213.804688 225.769531 214.019531 C 225.613281 214.238281 225.335938 214.988281 225.148438 215.691406 C 224.964844 216.398438 224.722656 217.109375 224.613281 217.277344 C 224.503906 217.445312 224.277344 218.03125 224.109375 218.578125 C 223.941406 219.125 223.6875 219.714844 223.550781 219.890625 C 223.410156 220.070312 223.117188 220.582031 222.894531 221.035156 C 222.40625 222.03125 221.992188 222.640625 221.171875 223.578125 C 220.597656 224.238281 220.535156 224.273438 220.324219 224.0625 C 219.886719 223.625 220.144531 221.738281 220.761719 220.851562 C 220.90625 220.648438 221.15625 220.078125 221.320312 219.589844 C 221.480469 219.101562 221.765625 218.542969 221.949219 218.351562 C 222.261719 218.019531 222.855469 216.53125 222.855469 216.082031 C 222.855469 215.972656 222.703125 215.699219 222.515625 215.472656 C 222.1875 215.089844 222.183594 215.046875 222.382812 214.648438 C 222.710938 213.980469 222.523438 213.5625 221.710938 213.148438 C 221.324219 212.953125 220.839844 212.667969 220.632812 212.515625 C 220.132812 212.148438 218.957031 212.152344 218.21875 212.523438 C 217.925781 212.667969 217.304688 212.886719 216.835938 213.003906 C 215.601562 213.3125 214.335938 214.332031 212.414062 216.570312 C 212.109375 216.925781 211.660156 217.699219 211.414062 218.296875 C 211.167969 218.890625 210.890625 219.46875 210.792969 219.582031 C 210.699219 219.695312 210.515625 220.113281 210.386719 220.507812 C 210.257812 220.898438 210.003906 221.425781 209.820312 221.679688 C 209.601562 221.976562 209.390625 222.28125 209.1875 222.59375 C 209.023438 222.84375 208.667969 223.203125 208.394531 223.390625 C 208.070312 223.613281 207.746094 223.839844 207.429688 224.066406 C 206.847656 224.492188 205.785156 224.546875 205.453125 224.167969 C 204.792969 223.414062 204.660156 222.648438 205.007812 221.621094 C 205.292969 220.785156 205.621094 220.519531 206.597656 220.316406 C 207.050781 220.226562 207.585938 220.03125 207.792969 219.886719 C 208.003906 219.742188 208.390625 219.550781 208.65625 219.464844 C 208.925781 219.378906 209.640625 218.835938 210.277344 218.238281 C 210.902344 217.652344 211.542969 217.078125 211.695312 216.964844 C 212.023438 216.722656 212.3125 215.175781 212.195312 214.308594 C 212.109375 213.648438 211.863281 213.367188 210.914062 212.828125 C 210.015625 212.324219 209.648438 212.3125 208.324219 212.757812 C 207.757812 212.949219 207.167969 213.101562 207.011719 213.101562 C 206.59375 213.101562 206.636719 212.488281 207.085938 212.042969 C 207.476562 211.648438 208.65625 209.335938 208.65625 208.960938 C 208.65625 208.832031 208.839844 207.800781 209.066406 206.675781 C 209.53125 204.367188 209.566406 203.757812 209.289062 202.644531 C 209.179688 202.214844 209.019531 201.414062 208.929688 200.863281 C 208.839844 200.308594 208.609375 199.566406 208.417969 199.207031 C 208.230469 198.847656 207.953125 198.25 207.804688 197.878906 C 207.65625 197.503906 207.371094 196.980469 207.164062 196.714844 C 206.5 195.851562 204.320312 193.765625 203.898438 193.585938 C 203.671875 193.488281 203.335938 193.25 203.152344 193.054688 C 202.96875 192.859375 202.472656 192.574219 202.046875 192.417969 C 201.625 192.261719 200.988281 191.984375 200.636719 191.796875 C 200.023438 191.46875 198.515625 191.023438 196.175781 190.480469 C 193.929688 189.957031 191.84375 189.882812 178.476562 189.851562 L 165.597656 189.816406 L 165.203125 190.210938 C 164.738281 190.679688 164.679688 191.296875 165.074219 191.652344 C 165.21875 191.78125 165.792969 191.980469 166.347656 192.09375 C 166.90625 192.207031 167.515625 192.421875 167.703125 192.570312 C 167.894531 192.71875 168.238281 192.929688 168.464844 193.035156 C 168.996094 193.277344 169.3125 193.628906 169.429688 194.105469 C 169.480469 194.308594 169.609375 194.550781 169.714844 194.636719 C 169.820312 194.726562 169.972656 195.035156 170.050781 195.328125 C 170.148438 195.679688 170.199219 202.636719 170.207031 216.171875 L 170.222656 236.484375 L 169.796875 237.238281 C 168.972656 238.695312 168.308594 239.199219 167.015625 239.363281 C 165.757812 239.523438 165.234375 239.703125 165 240.0625 C 164.726562 240.484375 164.835938 241.226562 165.226562 241.578125 C 165.484375 241.8125 166.089844 241.828125 175.394531 241.867188 C 180.832031 241.890625 185.59375 241.925781 185.972656 241.945312 C 187.285156 242.011719 187.726562 241.703125 187.726562 240.714844 C 187.726562 239.976562 187.375 239.730469 186.015625 239.511719 C 184.585938 239.277344 183.894531 239.003906 183.773438 238.625 C 183.722656 238.46875 183.503906 238.214844 183.289062 238.0625 C 183.066406 237.90625 182.78125 237.488281 182.640625 237.125 C 182.402344 236.503906 182.390625 235.492188 182.390625 215.703125 C 182.390625 195.46875 182.394531 194.925781 182.652344 194.640625 C 182.894531 194.371094 183.054688 194.351562 184.917969 194.351562 C 187.554688 194.351562 189.195312 194.5625 190.273438 195.046875 C 190.742188 195.257812 191.308594 195.46875 191.53125 195.515625 C 191.894531 195.597656 192.796875 196.261719 193.765625 197.15625 C 194.378906 197.726562 195.390625 199.253906 195.554688 199.863281 C 195.644531 200.1875 195.859375 200.773438 196.039062 201.160156 C 196.328125 201.796875 196.402344 202.238281 196.578125 204.417969 C 196.660156 205.429688 196.40625 207.054688 196.046875 207.785156 C 195.855469 208.183594 195.695312 208.574219 195.695312 208.648438 C 195.695312 209.019531 195.136719 210.40625 194.945312 210.511719 C 194.824219 210.582031 194.605469 210.867188 194.460938 211.144531 C 193.851562 212.308594 191.644531 213.894531 190.035156 214.328125 C 189.46875 214.480469 188.789062 214.691406 188.523438 214.800781 C 188.257812 214.910156 187.421875 215.070312 186.664062 215.160156 C 185.90625 215.246094 185.074219 215.34375 184.820312 215.375 C 184.105469 215.464844 183.699219 215.796875 183.699219 216.289062 C 183.699219 216.628906 183.886719 216.890625 184.683594 217.664062 C 185.226562 218.1875 185.722656 218.617188 185.785156 218.617188 C 185.847656 218.617188 186 218.820312 186.125 219.066406 C 186.253906 219.3125 186.578125 219.769531 186.855469 220.082031 C 187.371094 220.671875 187.976562 221.578125 188.457031 222.492188 C 188.613281 222.78125 188.898438 223.191406 189.09375 223.402344 C 189.289062 223.617188 189.65625 224.097656 189.90625 224.476562 C 190.160156 224.855469 190.4375 225.210938 190.527344 225.265625 C 190.617188 225.320312 190.796875 225.644531 190.929688 225.988281 C 191.058594 226.332031 191.226562 226.613281 191.296875 226.613281 C 191.367188 226.613281 191.648438 226.972656 191.925781 227.40625 C 192.203125 227.84375 192.578125 228.382812 192.761719 228.601562 C 192.945312 228.824219 193.191406 229.242188 193.304688 229.535156 C 193.421875 229.824219 193.570312 230.0625 193.632812 230.0625 C 193.691406 230.0625 193.976562 230.449219 194.261719 230.921875 C 194.546875 231.398438 194.953125 231.988281 195.167969 232.238281 C 195.382812 232.488281 195.554688 232.773438 195.554688 232.871094 C 195.554688 232.972656 195.679688 233.164062 195.832031 233.300781 C 195.984375 233.441406 196.320312 233.933594 196.578125 234.394531 C 196.839844 234.859375 197.1875 235.359375 197.347656 235.507812 C 197.511719 235.65625 197.738281 235.996094 197.851562 236.265625 C 197.960938 236.53125 198.199219 236.90625 198.375 237.09375 C 198.550781 237.285156 198.792969 237.628906 198.910156 237.863281 C 199.027344 238.097656 199.34375 238.554688 199.617188 238.875 C 199.886719 239.199219 200.105469 239.550781 200.105469 239.660156 C 200.105469 239.765625 200.269531 239.992188 200.464844 240.164062 C 200.664062 240.332031 200.941406 240.722656 201.085938 241.027344 C 201.230469 241.332031 201.597656 241.882812 201.898438 242.246094 C 202.203125 242.613281 202.449219 242.960938 202.449219 243.015625 C 202.449219 243.074219 202.664062 243.359375 202.929688 243.65625 C 203.976562 244.832031 204.40625 245.328125 204.960938 245.988281 C 206.0625 247.300781 207.898438 249.109375 208.398438 249.371094 C 208.671875 249.511719 208.933594 249.722656 208.976562 249.835938 C 209.019531 249.949219 209.289062 250.203125 209.578125 250.398438 C 209.867188 250.59375 210.566406 251.09375 211.136719 251.507812 C 211.707031 251.925781 212.480469 252.425781 212.859375 252.617188 C 213.238281 252.808594 213.859375 253.144531 214.238281 253.367188 C 214.617188 253.589844 215.023438 253.773438 215.140625 253.773438 C 215.257812 253.777344 215.683594 253.992188 216.089844 254.253906 C 216.496094 254.515625 217.023438 254.769531 217.257812 254.816406 C 217.492188 254.867188 218.152344 255.113281 218.71875 255.367188 C 219.394531 255.667969 220.160156 255.878906 220.925781 255.976562 C 221.570312 256.0625 222.5 256.246094 222.996094 256.390625 C 224.34375 256.777344 225.972656 256.949219 228.363281 256.949219 C 230.824219 256.949219 232.425781 256.78125 233.5 256.410156 C 233.910156 256.269531 234.632812 256.109375 235.109375 256.054688 C 236.160156 255.933594 237.003906 255.703125 238.09375 255.238281 C 238.546875 255.046875 239.054688 254.886719 239.21875 254.882812 C 239.382812 254.882812 239.796875 254.761719 240.140625 254.613281 C 240.84375 254.3125 241.195312 253.789062 241.195312 253.046875 C 241.195312 252.152344 240.722656 251.992188 237.230469 251.710938 C 236.226562 251.628906 235.015625 251.445312 234.542969 251.308594 C 234.066406 251.167969 233.371094 250.980469 232.992188 250.890625 C 231.445312 250.527344 231.164062 250.4375 230.371094 250.058594 C 229.914062 249.839844 229.308594 249.617188 229.015625 249.566406 C 228.726562 249.511719 228.191406 249.261719 227.820312 249.007812 C 227.453125 248.753906 226.976562 248.507812 226.761719 248.453125 C 226.546875 248.402344 226.125 248.191406 225.820312 247.984375 C 225.515625 247.777344 224.988281 247.46875 224.648438 247.296875 C 224.308594 247.125 223.84375 246.832031 223.613281 246.648438 C 223.386719 246.464844 222.824219 246.023438 222.367188 245.667969 C 220.605469 244.300781 220.007812 243.773438 217.871094 241.6875 C 216.21875 240.074219 214.414062 238.03125 212.652344 235.789062 C 212.3125 235.355469 211.832031 234.78125 211.585938 234.511719 C 211.339844 234.242188 211.136719 233.96875 211.136719 233.90625 C 211.136719 233.839844 210.644531 233.203125 210.046875 232.488281 C 209.445312 231.773438 208.878906 231.046875 208.785156 230.867188 C 208.585938 230.488281 207.933594 229.671875 207.328125 229.042969 C 207.09375 228.800781 206.734375 228.339844 206.535156 228.019531 C 206.332031 227.703125 206.109375 227.441406 206.035156 227.441406 C 205.863281 227.441406 205.449219 226.640625 205.546875 226.488281 C 205.585938 226.425781 206.074219 226.328125 206.628906 226.277344 C 207.753906 226.171875 207.871094 226.121094 209 225.234375 C 209.4375 224.894531 209.875 224.554688 209.976562 224.484375 C 210.109375 224.386719 210.414062 224.597656 211.117188 225.277344 L 212.074219 226.203125 L 212.910156 226.203125 C 213.871094 226.203125 214.3125 226.039062 214.59375 225.578125 C 214.703125 225.402344 215.007812 225.109375 215.273438 224.933594 C 215.539062 224.757812 215.96875 224.289062 216.230469 223.894531 C 216.785156 223.050781 216.945312 223.097656 217.183594 224.175781 C 217.3125 224.742188 217.484375 225.042969 217.9375 225.488281 C 218.675781 226.210938 219.242188 226.390625 220.183594 226.195312 C 220.894531 226.050781 221.160156 225.824219 222.355469 224.34375 C 222.652344 223.976562 222.722656 223.953125 223.039062 224.097656 C 223.230469 224.183594 223.609375 224.597656 223.875 225.015625 C 224.664062 226.25 225.335938 226.496094 227.097656 226.195312 C 227.925781 226.054688 228.253906 225.925781 228.640625 225.585938 C 228.910156 225.351562 229.300781 225.074219 229.515625 224.964844 C 229.726562 224.859375 230.015625 224.578125 230.160156 224.347656 C 230.304688 224.113281 230.589844 223.769531 230.792969 223.578125 C 231 223.390625 231.3125 222.910156 231.492188 222.511719 C 231.667969 222.113281 231.875 221.789062 231.953125 221.789062 C 232.222656 221.789062 232.546875 220.886719 232.5625 220.09375 C 232.574219 219.441406 232.523438 219.246094 232.308594 219.089844 C 232.160156 218.980469 231.992188 218.894531 231.929688 218.894531 C 231.683594 218.894531 231.273438 219.460938 231.113281 220.023438 C 231.023438 220.351562 230.738281 220.835938 230.488281 221.101562 C 230.238281 221.371094 229.929688 221.882812 229.808594 222.242188 C 229.6875 222.597656 229.453125 223 229.289062 223.132812 C 229.125 223.265625 228.785156 223.636719 228.53125 223.960938 C 228.019531 224.613281 227.628906 224.699219 226.796875 224.351562 C 226.457031 224.210938 226.289062 224.023438 226.164062 223.644531 C 225.929688 222.933594 226.0625 221.714844 226.480469 220.8125 C 226.667969 220.402344 226.933594 219.765625 227.070312 219.398438 C 227.210938 219.011719 227.488281 218.601562 227.71875 218.433594 C 227.941406 218.269531 228.203125 217.980469 228.304688 217.789062 C 228.40625 217.601562 228.894531 217.015625 229.394531 216.492188 C 229.894531 215.96875 230.300781 215.492188 230.300781 215.4375 C 230.300781 215.378906 230.578125 215.007812 230.914062 214.613281 C 231.253906 214.21875 231.566406 213.726562 231.613281 213.519531 C 231.65625 213.3125 231.875 212.96875 232.097656 212.753906 C 232.320312 212.542969 232.601562 212.054688 232.726562 211.667969 C 232.855469 211.28125 233.070312 210.839844 233.210938 210.6875 C 233.347656 210.53125 233.558594 210.132812 233.675781 209.800781 C 233.949219 209.027344 234.121094 208.828125 234.515625 208.828125 C 234.789062 208.828125 234.847656 208.917969 234.933594 209.476562 C 234.984375 209.835938 234.960938 210.597656 234.875 211.167969 C 234.789062 211.738281 234.625 213.199219 234.507812 214.414062 C 234.21875 217.386719 234.085938 218.03125 233.648438 218.664062 C 233.347656 219.097656 233.253906 219.429688 233.171875 220.355469 C 233.109375 221.085938 232.941406 221.824219 232.714844 222.371094 C 232.515625 222.847656 232.234375 223.683594 232.085938 224.230469 C 231.9375 224.777344 231.632812 225.539062 231.40625 225.921875 C 231.179688 226.308594 230.957031 226.789062 230.90625 226.996094 C 230.859375 227.203125 230.582031 227.75 230.285156 228.210938 C 229.992188 228.671875 229.75 229.1875 229.75 229.363281 C 229.75 229.539062 229.472656 230.050781 229.128906 230.503906 C 228.789062 230.957031 228.507812 231.410156 228.507812 231.511719 C 228.507812 231.609375 228.308594 231.941406 228.0625 232.25 C 227.816406 232.554688 227.488281 232.992188 227.335938 233.21875 C 226.890625 233.882812 225.863281 235.210938 225.554688 235.515625 C 225.398438 235.671875 224.960938 236.191406 224.578125 236.671875 C 224.199219 237.152344 223.386719 238.046875 222.769531 238.664062 C 222.152344 239.277344 221.515625 240 221.355469 240.265625 C 221.011719 240.835938 220.980469 241.34375 221.28125 241.460938 C 221.59375 241.582031 222.820312 240.96875 223.46875 240.371094 C 223.835938 240.03125 224.207031 239.699219 224.578125 239.367188 C 226.585938 237.601562 230.609375 233.367188 230.773438 232.851562 C 230.820312 232.710938 231.042969 232.457031 231.269531 232.289062 C 231.496094 232.121094 231.679688 231.875 231.679688 231.742188 C 231.679688 231.605469 231.929688 231.253906 232.230469 230.957031 C 232.535156 230.664062 232.785156 230.367188 232.785156 230.304688 C 232.785156 230.203125 233.253906 229.457031 234.261719 227.964844 C 234.433594 227.714844 234.785156 227.085938 235.046875 226.566406 C 235.3125 226.042969 235.609375 225.515625 235.714844 225.394531 C 235.816406 225.269531 236.046875 224.796875 236.226562 224.339844 C 236.40625 223.886719 236.667969 223.359375 236.804688 223.167969 C 236.9375 222.980469 237.207031 222.402344 237.402344 221.886719 C 237.59375 221.371094 237.839844 220.8125 237.949219 220.644531 C 238.054688 220.476562 238.28125 219.84375 238.445312 219.238281 C 238.609375 218.632812 238.890625 217.816406 239.074219 217.429688 C 239.257812 217.042969 239.527344 216.140625 239.679688 215.429688 C 239.832031 214.71875 240.082031 213.675781 240.238281 213.113281 C 240.503906 212.144531 240.882812 209.324219 241.226562 205.796875 C 241.488281 203.09375 241.421875 200.667969 240.988281 197.246094 C 240.878906 196.375 240.722656 195.054688 240.644531 194.3125 C 240.566406 193.570312 240.378906 192.609375 240.234375 192.175781 C 240.085938 191.742188 239.835938 190.800781 239.675781 190.085938 C 239.519531 189.371094 239.210938 188.378906 238.996094 187.882812 C 238.777344 187.382812 238.53125 186.609375 238.449219 186.164062 C 238.367188 185.714844 238.152344 185.082031 237.96875 184.757812 C 237.785156 184.429688 237.5 183.738281 237.328125 183.222656 C 237.160156 182.707031 236.945312 182.195312 236.847656 182.078125 C 236.753906 181.964844 236.460938 181.402344 236.195312 180.824219 C 235.929688 180.246094 235.644531 179.730469 235.558594 179.675781 C 235.46875 179.625 235.308594 179.363281 235.195312 179.09375 C 235.085938 178.828125 234.808594 178.335938 234.578125 177.996094 C 234.351562 177.65625 234.058594 177.179688 233.9375 176.9375 C 233.8125 176.695312 233.589844 176.371094 233.445312 176.21875 C 233.300781 176.070312 232.980469 175.65625 232.742188 175.308594 C 231.703125 173.804688 231.453125 173.472656 231.117188 173.132812 C 230.921875 172.933594 230.671875 172.609375 230.566406 172.40625 C 229.988281 171.328125 224.210938 165.480469 223.179688 164.933594 C 223.015625 164.847656 222.746094 164.605469 222.582031 164.398438 C 222.417969 164.1875 222.210938 164.019531 222.121094 164.019531 C 222.027344 164.019531 221.648438 163.765625 221.273438 163.453125 C 220.898438 163.144531 220.402344 162.796875 220.171875 162.675781 C 219.941406 162.558594 219.570312 162.308594 219.347656 162.125 C 219.125 161.9375 218.804688 161.730469 218.636719 161.667969 C 218.464844 161.605469 218.027344 161.339844 217.664062 161.078125 C 217.296875 160.816406 216.839844 160.558594 216.652344 160.503906 C 216.460938 160.449219 216.015625 160.21875 215.65625 159.992188 C 215.296875 159.765625 214.738281 159.476562 214.414062 159.351562 C 214.089844 159.226562 213.546875 158.957031 213.203125 158.753906 C 211.886719 157.980469 208.46875 156.792969 203.898438 155.53125 C 202.25 155.074219 198.671875 154.589844 195.28125 154.359375 C 194.179688 154.285156 192.816406 154.191406 192.246094 154.144531 C 191.679688 154.101562 191.167969 154.109375 191.117188 154.164062 M 232.871094 206.589844 C 232.835938 206.722656 232.765625 206.96875 232.714844 207.140625 C 232.652344 207.363281 232.683594 207.449219 232.839844 207.449219 C 233.085938 207.449219 233.335938 207.039062 233.335938 206.632812 C 233.335938 206.285156 232.96875 206.25 232.871094 206.589844 M 231.835938 208.21875 C 231.679688 208.414062 231.511719 208.710938 231.464844 208.875 C 231.414062 209.039062 231.234375 209.359375 231.066406 209.585938 C 230.761719 209.996094 230.300781 211.183594 230.300781 211.550781 C 230.300781 211.671875 230.417969 211.726562 230.601562 211.699219 C 230.820312 211.667969 230.957031 211.480469 231.117188 211.007812 C 231.238281 210.652344 231.5 210.1875 231.703125 209.972656 C 232.066406 209.589844 232.367188 208.773438 232.371094 208.171875 C 232.371094 207.765625 232.179688 207.78125 231.835938 208.21875 M 229.488281 212.863281 C 229.367188 213.1875 229.429688 213.515625 229.613281 213.515625 C 229.75 213.515625 229.886719 213.164062 229.886719 212.816406 C 229.886719 212.453125 229.628906 212.484375 229.488281 212.863281 M 219.203125 214.628906 C 218.976562 214.773438 218.6875 214.894531 218.566406 214.894531 C 218.277344 214.894531 215.898438 217.246094 215.601562 217.828125 C 215.472656 218.070312 215.25 218.355469 215.105469 218.457031 C 214.960938 218.5625 214.691406 218.992188 214.503906 219.417969 C 214.316406 219.84375 214.015625 220.378906 213.839844 220.609375 C 213.296875 221.320312 213.035156 223.0625 213.363281 223.78125 C 213.574219 224.242188 213.773438 224.226562 214.480469 223.683594 C 215.785156 222.679688 216.753906 221.484375 217.140625 220.394531 C 217.238281 220.117188 217.535156 219.609375 217.800781 219.261719 C 218.066406 218.914062 218.328125 218.425781 218.378906 218.175781 C 218.511719 217.566406 219.941406 215.84375 220.789062 215.273438 L 221.132812 215.042969 L 220.746094 214.691406 C 220.289062 214.28125 219.78125 214.257812 219.203125 214.628906 M 208.519531 215.527344 C 207.527344 216.457031 206.722656 217.550781 206.722656 217.976562 C 206.722656 218.175781 206.78125 218.34375 206.851562 218.34375 C 206.921875 218.34375 207.367188 218.140625 207.835938 217.894531 C 208.53125 217.53125 208.804688 217.277344 209.292969 216.550781 C 210.003906 215.496094 210.09375 214.894531 209.546875 214.894531 C 209.320312 214.894531 208.953125 215.121094 208.519531 215.527344 M 202.554688 216.535156 C 201.792969 217.207031 199.527344 218.039062 197.660156 218.335938 C 197.640625 218.339844 197.625 218.453125 197.625 218.59375 C 197.625 218.734375 198.113281 219.261719 198.761719 219.816406 C 199.339844 220.308594 199.914062 220.804688 200.488281 221.300781 C 200.820312 221.589844 201.164062 221.785156 201.273438 221.742188 C 201.585938 221.621094 202.039062 220.609375 202.261719 219.535156 C 202.398438 218.871094 202.625 218.320312 202.945312 217.851562 C 203.207031 217.46875 203.460938 216.925781 203.507812 216.644531 C 203.578125 216.195312 203.554688 216.136719 203.300781 216.136719 C 203.140625 216.136719 202.804688 216.316406 202.554688 216.535156 M 157.089844 226.578125 C 156.972656 226.621094 156.6875 226.816406 156.453125 227.015625 C 156.21875 227.210938 155.835938 227.476562 155.601562 227.605469 C 155.292969 227.769531 155.148438 227.96875 155.082031 228.316406 C 154.949219 229.027344 155.109375 229.546875 155.757812 230.511719 C 156.074219 230.984375 156.417969 231.535156 156.519531 231.734375 C 156.765625 232.21875 157.308594 232.507812 157.605469 232.320312 C 157.730469 232.242188 157.882812 231.996094 157.953125 231.777344 C 158.019531 231.554688 158.128906 231.246094 158.199219 231.097656 C 159.039062 229.273438 159.0625 226.917969 158.242188 226.609375 C 157.867188 226.464844 157.414062 226.453125 157.089844 226.578125 M 152.203125 231.382812 C 152.082031 231.5 151.988281 231.652344 151.988281 231.71875 C 151.988281 231.785156 151.726562 232.136719 151.410156 232.5 C 151.097656 232.867188 150.726562 233.417969 150.585938 233.730469 C 150.449219 234.042969 150.238281 234.382812 150.117188 234.480469 C 149.996094 234.582031 149.71875 235.058594 149.5 235.542969 C 149.28125 236.027344 148.941406 236.609375 148.75 236.839844 C 148.558594 237.066406 148.402344 237.34375 148.402344 237.453125 C 148.402344 237.632812 148.125 238.199219 147.503906 239.300781 C 147.398438 239.488281 147.203125 239.949219 147.070312 240.320312 C 146.9375 240.691406 146.683594 241.171875 146.503906 241.382812 C 146.066406 241.910156 145.933594 242.707031 146.269531 242.835938 C 146.71875 243.007812 148.164062 242.617188 148.609375 242.203125 C 148.835938 241.988281 149.257812 241.738281 149.546875 241.648438 C 149.832031 241.554688 150.347656 241.238281 150.691406 240.941406 C 151.035156 240.644531 151.386719 240.402344 151.472656 240.402344 C 151.558594 240.402344 151.890625 240.140625 152.203125 239.816406 C 152.519531 239.496094 152.855469 239.164062 152.953125 239.078125 C 153.230469 238.835938 153.917969 238.152344 154.167969 237.867188 C 155.785156 236.035156 156.054688 235.601562 155.921875 235.066406 C 155.875 234.875 155.535156 234.402344 155.167969 234.011719 C 154.804688 233.621094 154.410156 233.117188 154.292969 232.886719 C 154.175781 232.660156 153.933594 232.339844 153.757812 232.175781 C 153.578125 232.011719 153.324219 231.71875 153.1875 231.523438 C 152.90625 231.117188 152.523438 231.0625 152.203125 231.382812 M 162.050781 245.738281 C 161.566406 245.816406 160.949219 246.070312 160.949219 246.191406 C 160.949219 246.246094 160.617188 246.511719 160.210938 246.78125 C 159.449219 247.289062 157.714844 249.105469 157.378906 249.753906 C 157.273438 249.957031 157.007812 250.328125 156.792969 250.578125 C 156.574219 250.824219 156.398438 251.089844 156.398438 251.160156 C 156.398438 251.230469 156.179688 251.632812 155.910156 252.050781 C 155.300781 253.003906 154.410156 255.585938 154.527344 256.054688 C 154.574219 256.242188 154.765625 256.496094 154.960938 256.621094 C 155.726562 257.125 156.960938 256.253906 158.320312 254.257812 C 158.628906 253.804688 158.878906 253.367188 158.878906 253.285156 C 158.878906 253.203125 159.125 252.808594 159.425781 252.40625 C 159.726562 252 160.046875 251.445312 160.132812 251.171875 C 160.222656 250.898438 160.433594 250.519531 160.605469 250.332031 C 160.777344 250.140625 161.046875 249.683594 161.207031 249.3125 C 161.5625 248.496094 162.675781 247.386719 163.367188 247.15625 C 163.835938 247.003906 163.867188 246.960938 163.789062 246.566406 C 163.621094 245.738281 163.214844 245.546875 162.050781 245.738281 M 188.335938 246.066406 C 187.785156 246.5 185.886719 248.699219 185.457031 249.402344 C 185.003906 250.140625 184.949219 250.742188 185.335938 250.742188 C 186.011719 250.742188 188.351562 248.863281 188.820312 247.945312 C 188.96875 247.65625 189.171875 247.390625 189.277344 247.347656 C 189.378906 247.308594 189.539062 247.09375 189.632812 246.867188 C 190.015625 245.945312 189.160156 245.417969 188.335938 246.066406 M 172.300781 247.152344 C 171.628906 247.3125 170.246094 248.621094 169.824219 249.492188 C 169.628906 249.90625 169.351562 250.339844 169.21875 250.460938 C 169.082031 250.578125 168.867188 251.046875 168.738281 251.503906 C 168.613281 251.957031 168.367188 252.484375 168.191406 252.675781 C 168.015625 252.863281 167.734375 253.296875 167.5625 253.640625 C 167.394531 253.980469 167.074219 254.464844 166.859375 254.710938 C 166.640625 254.960938 166.464844 255.253906 166.464844 255.363281 C 166.464844 255.679688 164.78125 257.601562 163.566406 258.675781 C 162.316406 259.78125 160.78125 259.390625 159.574219 257.65625 C 158.539062 256.171875 158.679688 256.261719 158.214844 256.816406 C 157.992188 257.082031 157.332031 257.726562 156.753906 258.242188 C 155.703125 259.183594 155.699219 259.183594 154.601562 259.324219 C 153.996094 259.402344 153.503906 259.511719 153.503906 259.566406 C 153.503906 259.621094 153.890625 260.046875 154.363281 260.507812 C 155.574219 261.6875 156.0625 262.308594 156.34375 263.019531 C 156.472656 263.359375 156.691406 263.792969 156.820312 263.980469 C 156.953125 264.171875 157.132812 264.59375 157.21875 264.917969 C 157.304688 265.246094 157.46875 265.546875 157.574219 265.585938 C 157.695312 265.632812 158.191406 265.273438 158.84375 264.667969 C 159.433594 264.117188 160.195312 263.546875 160.535156 263.390625 C 160.875 263.238281 161.347656 262.945312 161.585938 262.742188 C 161.871094 262.492188 162.246094 262.335938 162.707031 262.273438 C 163.171875 262.210938 163.570312 262.046875 163.921875 261.765625 C 164.433594 261.359375 164.46875 261.351562 165.558594 261.4375 L 166.671875 261.523438 L 167.191406 260.898438 C 167.753906 260.214844 168.296875 259.984375 169.359375 259.980469 C 170.238281 259.980469 170.984375 259.742188 171.214844 259.390625 C 171.324219 259.222656 171.632812 258.96875 171.894531 258.828125 C 172.492188 258.507812 172.507812 258.460938 172.683594 256.730469 C 172.804688 255.5 172.796875 255.257812 172.597656 254.875 C 172.386719 254.46875 172.328125 254.441406 171.863281 254.523438 C 170.433594 254.773438 170.058594 254.78125 169.707031 254.550781 C 169.21875 254.230469 169.234375 253.609375 169.738281 253.25 C 169.945312 253.101562 170.351562 252.882812 170.636719 252.765625 C 170.921875 252.644531 171.191406 252.449219 171.238281 252.332031 C 171.285156 252.210938 171.515625 252.015625 171.753906 251.894531 C 172.808594 251.359375 174.046875 249.582031 174.046875 248.601562 C 174.046875 248.132812 173.539062 247.160156 173.296875 247.160156 C 173.191406 247.160156 173.023438 247.132812 172.921875 247.105469 C 172.820312 247.074219 172.539062 247.097656 172.300781 247.152344 M 129.304688 255.996094 C 128.773438 256.0625 127.90625 256.296875 127.375 256.515625 C 126.84375 256.738281 126.101562 257.027344 125.71875 257.164062 C 125.339844 257.300781 124.855469 257.585938 124.636719 257.804688 C 124.421875 258.019531 124.066406 258.289062 123.851562 258.402344 C 123.066406 258.804688 122.898438 261.085938 123.652344 261.085938 C 123.761719 261.085938 124.070312 261.277344 124.335938 261.511719 C 125.265625 262.328125 126.832031 262.34375 128.476562 261.554688 C 129.007812 261.304688 129.667969 261.058594 129.945312 261.019531 C 130.21875 260.976562 130.65625 260.785156 130.910156 260.597656 C 131.164062 260.410156 131.554688 260.148438 131.777344 260.015625 C 132 259.882812 132.445312 259.527344 132.769531 259.222656 C 133.09375 258.921875 133.460938 258.578125 133.582031 258.464844 C 134.375 257.730469 135.304688 256.628906 135.304688 256.417969 C 135.304688 255.960938 134.710938 255.84375 132.4375 255.863281 C 131.246094 255.871094 129.835938 255.933594 129.304688 255.996094 M 168.601562 261.71875 C 168.222656 261.828125 167.601562 261.945312 167.222656 261.976562 C 166.007812 262.082031 165.210938 262.441406 164.433594 263.234375 C 164.265625 263.402344 163.769531 263.644531 163.332031 263.769531 C 162.820312 263.914062 162.410156 264.132812 162.191406 264.382812 C 162 264.597656 161.644531 264.875 161.398438 265 C 161.148438 265.125 160.832031 265.460938 160.679688 265.757812 C 160.53125 266.050781 160.316406 266.324219 160.203125 266.371094 C 159.847656 266.503906 159.53125 267.886719 159.640625 268.820312 C 159.765625 269.898438 159.929688 270.046875 161.015625 270.046875 C 161.746094 270.046875 162.046875 269.96875 162.796875 269.574219 C 163.292969 269.316406 163.878906 269.066406 164.09375 269.019531 C 164.308594 268.972656 164.785156 268.683594 165.15625 268.378906 C 165.523438 268.074219 165.953125 267.757812 166.109375 267.675781 C 166.835938 267.300781 169.453125 264.492188 170.238281 263.246094 C 170.65625 262.582031 170.875 261.828125 170.699219 261.652344 C 170.488281 261.441406 169.433594 261.476562 168.601562 261.71875 "/></g></g></svg>